<?xml version="1.0" encoding="utf-8"?>
<svg viewBox="0 10.598 222.594 238.172" xmlns="http://www.w3.org/2000/svg">
  <g transform="matrix(2.074861, 0, 0, 2.247272, -1.769834, 15.23539)" fill="#111111" style="">
    <g xmlns="http://www.w3.org/2000/svg">
      <circle fill="#111111" cx="53.759" cy="19.742" r="12.242"/>
      <circle fill="#111111" cx="20.238" cy="35.55" r="9.965"/>
      <path fill="#111111" d="M47.633,92.602c-6.214-3.746-23.203-15.154-31.437-32.301c-3.363-7.002-0.865-9.157,2.386-12.903 c2.265,0.651,4.769,0.507,7.059-0.593c2.292-1.1,3.97-2.964,4.878-5.138c1.059-0.042,2.039-0.101,2.96-0.102 c-0.136,1.048-0.204,2.19-0.204,3.444c0,10.253,2.387,21.276,7.093,32.763c2.396,5.846,5.04,10.92,7.271,14.795 C47.637,92.577,47.634,92.591,47.633,92.602z"/>
      <path fill="#111111" d="M36.119,45.007c0-9.543,3.912-10.601,9.504-13.022c2.163,1.925,5.011,3.097,8.136,3.097 c3.125,0,5.972-1.171,8.136-3.097c5.592,2.421,9.504,3.48,9.504,13.022c0,23.37-12.748,45.039-17.64,52.493 C48.868,90.046,36.119,68.378,36.119,45.007z"/>
      <path fill="#111111" d="M91.321,60.301c-8.233,17.148-25.222,28.555-31.437,32.301c-0.001-0.013-0.003-0.025-0.006-0.038 c2.229-3.875,4.875-8.949,7.271-14.795c4.707-11.487,7.093-22.51,7.093-32.763c0-1.254-0.069-2.396-0.204-3.444 c0.921,0,1.9,0.06,2.96,0.102c0.908,2.175,2.586,4.038,4.878,5.138c2.292,1.1,4.794,1.244,7.059,0.593 C92.186,51.144,94.684,53.3,91.321,60.301z"/>
      <circle fill="#111111" cx="87.28" cy="35.55" r="9.965"/>
    </g>
  </g>
</svg>